<?xml version="1.0" encoding="UTF-8"?>
<svg id="Capa_1" data-name="Capa 1" xmlns="http://www.w3.org/2000/svg" viewBox="0 0 283.69 321.98">
  <defs>
    <style>
      .cls-1 {
        fill: #211915;
      }
    </style>
  </defs>
  <path class="cls-1" d="M.02,321.79c0-1.29,0-2.31,0-3.34,0-68.05-.06-136.09,.02-204.14C.09,78.68,12.17,49.11,36.11,26.18,53.86,9.18,74.61,.32,97.99,.07c11.67-.13,23.34-.03,35.01-.03,.73,0,1.46,0,2.34,0,.05,1.12,.11,1.95,.11,2.78-.02,69.67,.2,139.33-.18,209-.16,28.37-9.65,53.05-26.59,73.85-15.69,19.26-35.17,30.76-57.93,34.97-4.78,.88-9.68,1.16-14.54,1.23-11.33,.18-22.67,.07-34,.06-.58,0-1.16-.08-2.19-.15Z"/>
  <path class="cls-1" d="M148.14,148.2c1.24,0,2.08,0,2.91,0,29.98,0,59.95-.01,89.93,0,21.24,.01,40.28,22.04,42.46,49.11,.18,2.24,.12,4.52,.12,6.78,0,38.14,0,76.28,0,114.42v3.43c-.94,0-1.73,0-2.52,0-29.47,0-58.94,.08-88.42-.03-22.44-.08-39.79-18.76-43.85-47.06-.47-3.26-.59-6.64-.59-9.97-.04-37.82-.03-75.63-.03-113.45,0-.95,0-1.9,0-3.24Z"/>
  <path class="cls-1" d="M283.56,.03V2.89c0,29.39-.35,58.78,.12,88.16,.32,19.67-13.63,39.92-36.76,43.79-2.72,.45-5.52,.57-8.28,.58-29.22,.04-58.44,0-87.65,.08-2.39,0-2.9-.74-2.89-2.98,.07-29.39,.04-58.78,.06-88.16,.02-22.73,15.46-40.69,37.91-44.11,1.32-.2,2.68-.21,4.02-.21,30.39-.01,60.79,0,91.18,0,.66,0,1.31,0,2.29,0Z"/>
</svg>